<?xml version="1.0" encoding="utf-8" standalone="no"?>
<!DOCTYPE svg PUBLIC "-//W3C//DTD SVG 1.1//EN"
  "http://www.w3.org/Graphics/SVG/1.1/DTD/svg11.dtd">
<svg xmlns:xlink="http://www.w3.org/1999/xlink" width="576pt" height="720pt" viewBox="0 0 576 720" xmlns="http://www.w3.org/2000/svg" version="1.1">
 <metadata>
  <rdf:RDF xmlns:dc="http://purl.org/dc/elements/1.1/" xmlns:cc="http://creativecommons.org/ns#" xmlns:rdf="http://www.w3.org/1999/02/22-rdf-syntax-ns#">
   <cc:Work>
    <dc:type rdf:resource="http://purl.org/dc/dcmitype/StillImage"/>
    <dc:date>2025-08-28T11:17:43.708222</dc:date>
    <dc:format>image/svg+xml</dc:format>
    <dc:creator>
     <cc:Agent>
      <dc:title>Matplotlib v3.10.5, https://matplotlib.org/</dc:title>
     </cc:Agent>
    </dc:creator>
   </cc:Work>
  </rdf:RDF>
 </metadata>
 <defs>
  <style type="text/css">*{stroke-linejoin: round; stroke-linecap: butt}</style>
 </defs>
 <g id="figure_1">
  <g id="patch_1">
   <path d="M 0 720 
L 576 720 
L 576 0 
L 0 0 
z
" style="fill: #ffffff"/>
  </g>
  <g id="axes_1">
   <g id="patch_2">
    <path d="M 86.4 648 
L 564.48 648 
L 564.48 7.2 
L 86.4 7.2 
z
" style="fill: #f6f8fa"/>
   </g>
   <g id="patch_3">
    <path d="M 325.44 640.108374 
L 296.538322 640.108374 
L 296.538322 614.855172 
L 325.44 614.855172 
z
" clip-path="url(#p2295e122f7)" style="fill: #22863a; stroke: #000000; stroke-linejoin: miter"/>
   </g>
   <g id="patch_4">
    <path d="M 325.44 608.541872 
L 396.778232 608.541872 
L 396.778232 583.28867 
L 325.44 583.28867 
z
" clip-path="url(#p2295e122f7)" style="fill: #d73a49; stroke: #000000; stroke-linejoin: miter"/>
   </g>
   <g id="patch_5">
    <path d="M 325.44 576.975369 
L 318.344834 576.975369 
L 318.344834 551.722167 
L 325.44 551.722167 
z
" clip-path="url(#p2295e122f7)" style="fill: #22863a; stroke: #000000; stroke-linejoin: miter"/>
   </g>
   <g id="patch_6">
    <path d="M 325.44 545.408867 
L 401.8814 545.408867 
L 401.8814 520.155665 
L 325.44 520.155665 
z
" clip-path="url(#p2295e122f7)" style="fill: #d73a49; stroke: #000000; stroke-linejoin: miter"/>
   </g>
   <g id="patch_7">
    <path d="M 325.44 513.842365 
L 307.548007 513.842365 
L 307.548007 488.589163 
L 325.44 488.589163 
z
" clip-path="url(#p2295e122f7)" style="fill: #22863a; stroke: #000000; stroke-linejoin: miter"/>
   </g>
   <g id="patch_8">
    <path d="M 325.44 482.275862 
L 385.308852 482.275862 
L 385.308852 457.02266 
L 325.44 457.02266 
z
" clip-path="url(#p2295e122f7)" style="fill: #d73a49; stroke: #000000; stroke-linejoin: miter"/>
   </g>
   <g id="patch_9">
    <path d="M 325.44 450.70936 
L 200.568193 450.70936 
L 200.568193 425.456158 
L 325.44 425.456158 
z
" clip-path="url(#p2295e122f7)" style="fill: #22863a; stroke: #000000; stroke-linejoin: miter"/>
   </g>
   <g id="patch_10">
    <path d="M 325.44 419.142857 
L 305.873777 419.142857 
L 305.873777 393.889655 
L 325.44 393.889655 
z
" clip-path="url(#p2295e122f7)" style="fill: #22863a; stroke: #000000; stroke-linejoin: miter"/>
   </g>
   <g id="patch_11">
    <path d="M 325.44 387.576355 
L 383.789992 387.576355 
L 383.789992 362.323153 
L 325.44 362.323153 
z
" clip-path="url(#p2295e122f7)" style="fill: #d73a49; stroke: #000000; stroke-linejoin: miter"/>
   </g>
   <g id="patch_12">
    <path d="M 325.44 356.009852 
L 338.464713 356.009852 
L 338.464713 330.75665 
L 325.44 330.75665 
z
" clip-path="url(#p2295e122f7)" style="fill: #d73a49; stroke: #000000; stroke-linejoin: miter"/>
   </g>
   <g id="patch_13">
    <path d="M 325.44 324.44335 
L 325.44 324.44335 
L 325.44 299.190148 
L 325.44 299.190148 
z
" clip-path="url(#p2295e122f7)" style="fill: #d73a49; stroke: #000000; stroke-linejoin: miter"/>
   </g>
   <g id="patch_14">
    <path d="M 325.44 292.876847 
L 185.288894 292.876847 
L 185.288894 267.623645 
L 325.44 267.623645 
z
" clip-path="url(#p2295e122f7)" style="fill: #22863a; stroke: #000000; stroke-linejoin: miter"/>
   </g>
   <g id="patch_15">
    <path d="M 325.44 261.310345 
L 442.440601 261.310345 
L 442.440601 236.057143 
L 325.44 236.057143 
z
" clip-path="url(#p2295e122f7)" style="fill: #d73a49; stroke: #000000; stroke-linejoin: miter"/>
   </g>
   <g id="patch_16">
    <path d="M 325.44 229.743842 
L 349.619977 229.743842 
L 349.619977 204.49064 
L 325.44 204.49064 
z
" clip-path="url(#p2295e122f7)" style="fill: #d73a49; stroke: #000000; stroke-linejoin: miter"/>
   </g>
   <g id="patch_17">
    <path d="M 325.44 198.17734 
L 273.973177 198.17734 
L 273.973177 172.924138 
L 325.44 172.924138 
z
" clip-path="url(#p2295e122f7)" style="fill: #22863a; stroke: #000000; stroke-linejoin: miter"/>
   </g>
   <g id="patch_18">
    <path d="M 325.44 166.610837 
L 293.027119 166.610837 
L 293.027119 141.357635 
L 325.44 141.357635 
z
" clip-path="url(#p2295e122f7)" style="fill: #22863a; stroke: #000000; stroke-linejoin: miter"/>
   </g>
   <g id="patch_19">
    <path d="M 325.44 135.044335 
L 192.736438 135.044335 
L 192.736438 109.791133 
L 325.44 109.791133 
z
" clip-path="url(#p2295e122f7)" style="fill: #22863a; stroke: #000000; stroke-linejoin: miter"/>
   </g>
   <g id="patch_20">
    <path d="M 325.44 103.477833 
L 405.109505 103.477833 
L 405.109505 78.224631 
L 325.44 78.224631 
z
" clip-path="url(#p2295e122f7)" style="fill: #d73a49; stroke: #000000; stroke-linejoin: miter"/>
   </g>
   <g id="patch_21">
    <path d="M 325.44 71.91133 
L 282.940118 71.91133 
L 282.940118 46.658128 
L 325.44 46.658128 
z
" clip-path="url(#p2295e122f7)" style="fill: #22863a; stroke: #000000; stroke-linejoin: miter"/>
   </g>
   <g id="patch_22">
    <path d="M 325.44 40.344828 
L 327.766751 40.344828 
L 327.766751 15.091626 
L 325.44 15.091626 
z
" clip-path="url(#p2295e122f7)" style="fill: #d73a49; stroke: #000000; stroke-linejoin: miter"/>
   </g>
   <g id="matplotlib.axis_1">
    <g id="xtick_1">
     <g id="line2d_1">
      <path d="M 86.4 648 
L 86.4 7.2 
" clip-path="url(#p2295e122f7)" style="fill: none; stroke-dasharray: 0.8,1.32; stroke-dashoffset: 0; stroke: #8b949e; stroke-opacity: 0.7; stroke-width: 0.8"/>
     </g>
     <g id="line2d_2">
      <defs>
       <path id="m4f3bb21152" d="M 0 0 
L 0 3.5 
" style="stroke: #000000; stroke-width: 0.8"/>
      </defs>
      <g>
       <use xlink:href="#m4f3bb21152" x="86.4" y="648" style="stroke: #000000; stroke-width: 0.8"/>
      </g>
     </g>
     <g id="text_1">
      <!-- −1.5 -->
      <g transform="translate(74.258594 662.598438) scale(0.1 -0.1)">
       <defs>
        <path id="DejaVuSans-2212" d="M 678 2272 
L 4684 2272 
L 4684 1741 
L 678 1741 
L 678 2272 
z
" transform="scale(0.015625)"/>
        <path id="DejaVuSans-31" d="M 794 531 
L 1825 531 
L 1825 4091 
L 703 3866 
L 703 4441 
L 1819 4666 
L 2450 4666 
L 2450 531 
L 3481 531 
L 3481 0 
L 794 0 
L 794 531 
z
" transform="scale(0.015625)"/>
        <path id="DejaVuSans-2e" d="M 684 794 
L 1344 794 
L 1344 0 
L 684 0 
L 684 794 
z
" transform="scale(0.015625)"/>
        <path id="DejaVuSans-35" d="M 691 4666 
L 3169 4666 
L 3169 4134 
L 1269 4134 
L 1269 2991 
Q 1406 3038 1543 3061 
Q 1681 3084 1819 3084 
Q 2600 3084 3056 2656 
Q 3513 2228 3513 1497 
Q 3513 744 3044 326 
Q 2575 -91 1722 -91 
Q 1428 -91 1123 -41 
Q 819 9 494 109 
L 494 744 
Q 775 591 1075 516 
Q 1375 441 1709 441 
Q 2250 441 2565 725 
Q 2881 1009 2881 1497 
Q 2881 1984 2565 2268 
Q 2250 2553 1709 2553 
Q 1456 2553 1204 2497 
Q 953 2441 691 2322 
L 691 4666 
z
" transform="scale(0.015625)"/>
       </defs>
       <use xlink:href="#DejaVuSans-2212"/>
       <use xlink:href="#DejaVuSans-31" transform="translate(83.789062 0)"/>
       <use xlink:href="#DejaVuSans-2e" transform="translate(147.412109 0)"/>
       <use xlink:href="#DejaVuSans-35" transform="translate(179.199219 0)"/>
      </g>
     </g>
    </g>
    <g id="xtick_2">
     <g id="line2d_3">
      <path d="M 166.08 648 
L 166.08 7.2 
" clip-path="url(#p2295e122f7)" style="fill: none; stroke-dasharray: 0.8,1.32; stroke-dashoffset: 0; stroke: #8b949e; stroke-opacity: 0.7; stroke-width: 0.8"/>
     </g>
     <g id="line2d_4">
      <g>
       <use xlink:href="#m4f3bb21152" x="166.08" y="648" style="stroke: #000000; stroke-width: 0.8"/>
      </g>
     </g>
     <g id="text_2">
      <!-- −1.0 -->
      <g transform="translate(153.938594 662.598438) scale(0.1 -0.1)">
       <defs>
        <path id="DejaVuSans-30" d="M 2034 4250 
Q 1547 4250 1301 3770 
Q 1056 3291 1056 2328 
Q 1056 1369 1301 889 
Q 1547 409 2034 409 
Q 2525 409 2770 889 
Q 3016 1369 3016 2328 
Q 3016 3291 2770 3770 
Q 2525 4250 2034 4250 
z
M 2034 4750 
Q 2819 4750 3233 4129 
Q 3647 3509 3647 2328 
Q 3647 1150 3233 529 
Q 2819 -91 2034 -91 
Q 1250 -91 836 529 
Q 422 1150 422 2328 
Q 422 3509 836 4129 
Q 1250 4750 2034 4750 
z
" transform="scale(0.015625)"/>
       </defs>
       <use xlink:href="#DejaVuSans-2212"/>
       <use xlink:href="#DejaVuSans-31" transform="translate(83.789062 0)"/>
       <use xlink:href="#DejaVuSans-2e" transform="translate(147.412109 0)"/>
       <use xlink:href="#DejaVuSans-30" transform="translate(179.199219 0)"/>
      </g>
     </g>
    </g>
    <g id="xtick_3">
     <g id="line2d_5">
      <path d="M 245.76 648 
L 245.76 7.2 
" clip-path="url(#p2295e122f7)" style="fill: none; stroke-dasharray: 0.8,1.32; stroke-dashoffset: 0; stroke: #8b949e; stroke-opacity: 0.7; stroke-width: 0.8"/>
     </g>
     <g id="line2d_6">
      <g>
       <use xlink:href="#m4f3bb21152" x="245.76" y="648" style="stroke: #000000; stroke-width: 0.8"/>
      </g>
     </g>
     <g id="text_3">
      <!-- −0.5 -->
      <g transform="translate(233.618594 662.598438) scale(0.1 -0.1)">
       <use xlink:href="#DejaVuSans-2212"/>
       <use xlink:href="#DejaVuSans-30" transform="translate(83.789062 0)"/>
       <use xlink:href="#DejaVuSans-2e" transform="translate(147.412109 0)"/>
       <use xlink:href="#DejaVuSans-35" transform="translate(179.199219 0)"/>
      </g>
     </g>
    </g>
    <g id="xtick_4">
     <g id="line2d_7">
      <path d="M 325.44 648 
L 325.44 7.2 
" clip-path="url(#p2295e122f7)" style="fill: none; stroke-dasharray: 0.8,1.32; stroke-dashoffset: 0; stroke: #8b949e; stroke-opacity: 0.7; stroke-width: 0.8"/>
     </g>
     <g id="line2d_8">
      <g>
       <use xlink:href="#m4f3bb21152" x="325.44" y="648" style="stroke: #000000; stroke-width: 0.8"/>
      </g>
     </g>
     <g id="text_4">
      <!-- 0.0 -->
      <g transform="translate(317.488437 662.598438) scale(0.1 -0.1)">
       <use xlink:href="#DejaVuSans-30"/>
       <use xlink:href="#DejaVuSans-2e" transform="translate(63.623047 0)"/>
       <use xlink:href="#DejaVuSans-30" transform="translate(95.410156 0)"/>
      </g>
     </g>
    </g>
    <g id="xtick_5">
     <g id="line2d_9">
      <path d="M 405.12 648 
L 405.12 7.2 
" clip-path="url(#p2295e122f7)" style="fill: none; stroke-dasharray: 0.8,1.32; stroke-dashoffset: 0; stroke: #8b949e; stroke-opacity: 0.7; stroke-width: 0.8"/>
     </g>
     <g id="line2d_10">
      <g>
       <use xlink:href="#m4f3bb21152" x="405.12" y="648" style="stroke: #000000; stroke-width: 0.8"/>
      </g>
     </g>
     <g id="text_5">
      <!-- 0.5 -->
      <g transform="translate(397.168437 662.598438) scale(0.1 -0.1)">
       <use xlink:href="#DejaVuSans-30"/>
       <use xlink:href="#DejaVuSans-2e" transform="translate(63.623047 0)"/>
       <use xlink:href="#DejaVuSans-35" transform="translate(95.410156 0)"/>
      </g>
     </g>
    </g>
    <g id="xtick_6">
     <g id="line2d_11">
      <path d="M 484.8 648 
L 484.8 7.2 
" clip-path="url(#p2295e122f7)" style="fill: none; stroke-dasharray: 0.8,1.32; stroke-dashoffset: 0; stroke: #8b949e; stroke-opacity: 0.7; stroke-width: 0.8"/>
     </g>
     <g id="line2d_12">
      <g>
       <use xlink:href="#m4f3bb21152" x="484.8" y="648" style="stroke: #000000; stroke-width: 0.8"/>
      </g>
     </g>
     <g id="text_6">
      <!-- 1.0 -->
      <g transform="translate(476.848437 662.598438) scale(0.1 -0.1)">
       <use xlink:href="#DejaVuSans-31"/>
       <use xlink:href="#DejaVuSans-2e" transform="translate(63.623047 0)"/>
       <use xlink:href="#DejaVuSans-30" transform="translate(95.410156 0)"/>
      </g>
     </g>
    </g>
    <g id="xtick_7">
     <g id="line2d_13">
      <path d="M 564.48 648 
L 564.48 7.2 
" clip-path="url(#p2295e122f7)" style="fill: none; stroke-dasharray: 0.8,1.32; stroke-dashoffset: 0; stroke: #8b949e; stroke-opacity: 0.7; stroke-width: 0.8"/>
     </g>
     <g id="line2d_14">
      <g>
       <use xlink:href="#m4f3bb21152" x="564.48" y="648" style="stroke: #000000; stroke-width: 0.8"/>
      </g>
     </g>
     <g id="text_7">
      <!-- 1.5 -->
      <g transform="translate(556.528437 662.598438) scale(0.1 -0.1)">
       <use xlink:href="#DejaVuSans-31"/>
       <use xlink:href="#DejaVuSans-2e" transform="translate(63.623047 0)"/>
       <use xlink:href="#DejaVuSans-35" transform="translate(95.410156 0)"/>
      </g>
     </g>
    </g>
    <g id="xtick_8">
     <g id="line2d_15">
      <path d="M 126.24 648 
L 126.24 7.2 
" clip-path="url(#p2295e122f7)" style="fill: none; stroke-dasharray: 0.8,1.32; stroke-dashoffset: 0; stroke: #8b949e; stroke-opacity: 0.7; stroke-width: 0.8"/>
     </g>
     <g id="line2d_16">
      <defs>
       <path id="m5406fc79c7" d="M 0 0 
L 0 4 
" style="stroke: #8b949e; stroke-width: 0.6"/>
      </defs>
      <g>
       <use xlink:href="#m5406fc79c7" x="126.24" y="648" style="fill: #8b949e; stroke: #8b949e; stroke-width: 0.6"/>
      </g>
     </g>
    </g>
    <g id="xtick_9">
     <g id="line2d_17">
      <path d="M 205.92 648 
L 205.92 7.2 
" clip-path="url(#p2295e122f7)" style="fill: none; stroke-dasharray: 0.8,1.32; stroke-dashoffset: 0; stroke: #8b949e; stroke-opacity: 0.7; stroke-width: 0.8"/>
     </g>
     <g id="line2d_18">
      <g>
       <use xlink:href="#m5406fc79c7" x="205.92" y="648" style="fill: #8b949e; stroke: #8b949e; stroke-width: 0.6"/>
      </g>
     </g>
    </g>
    <g id="xtick_10">
     <g id="line2d_19">
      <path d="M 285.6 648 
L 285.6 7.2 
" clip-path="url(#p2295e122f7)" style="fill: none; stroke-dasharray: 0.8,1.32; stroke-dashoffset: 0; stroke: #8b949e; stroke-opacity: 0.7; stroke-width: 0.8"/>
     </g>
     <g id="line2d_20">
      <g>
       <use xlink:href="#m5406fc79c7" x="285.6" y="648" style="fill: #8b949e; stroke: #8b949e; stroke-width: 0.6"/>
      </g>
     </g>
    </g>
    <g id="xtick_11">
     <g id="line2d_21">
      <path d="M 365.28 648 
L 365.28 7.2 
" clip-path="url(#p2295e122f7)" style="fill: none; stroke-dasharray: 0.8,1.32; stroke-dashoffset: 0; stroke: #8b949e; stroke-opacity: 0.7; stroke-width: 0.8"/>
     </g>
     <g id="line2d_22">
      <g>
       <use xlink:href="#m5406fc79c7" x="365.28" y="648" style="fill: #8b949e; stroke: #8b949e; stroke-width: 0.6"/>
      </g>
     </g>
    </g>
    <g id="xtick_12">
     <g id="line2d_23">
      <path d="M 444.96 648 
L 444.96 7.2 
" clip-path="url(#p2295e122f7)" style="fill: none; stroke-dasharray: 0.8,1.32; stroke-dashoffset: 0; stroke: #8b949e; stroke-opacity: 0.7; stroke-width: 0.8"/>
     </g>
     <g id="line2d_24">
      <g>
       <use xlink:href="#m5406fc79c7" x="444.96" y="648" style="fill: #8b949e; stroke: #8b949e; stroke-width: 0.6"/>
      </g>
     </g>
    </g>
    <g id="xtick_13">
     <g id="line2d_25">
      <path d="M 524.64 648 
L 524.64 7.2 
" clip-path="url(#p2295e122f7)" style="fill: none; stroke-dasharray: 0.8,1.32; stroke-dashoffset: 0; stroke: #8b949e; stroke-opacity: 0.7; stroke-width: 0.8"/>
     </g>
     <g id="line2d_26">
      <g>
       <use xlink:href="#m5406fc79c7" x="524.64" y="648" style="fill: #8b949e; stroke: #8b949e; stroke-width: 0.6"/>
      </g>
     </g>
    </g>
    <g id="text_8">
     <!-- Runtime regression relative to Baseline (%) -->
     <g style="fill: #24292f" transform="translate(195.12375 677.79625) scale(0.12 -0.12)">
      <defs>
       <path id="DejaVuSans-52" d="M 2841 2188 
Q 3044 2119 3236 1894 
Q 3428 1669 3622 1275 
L 4263 0 
L 3584 0 
L 2988 1197 
Q 2756 1666 2539 1819 
Q 2322 1972 1947 1972 
L 1259 1972 
L 1259 0 
L 628 0 
L 628 4666 
L 2053 4666 
Q 2853 4666 3247 4331 
Q 3641 3997 3641 3322 
Q 3641 2881 3436 2590 
Q 3231 2300 2841 2188 
z
M 1259 4147 
L 1259 2491 
L 2053 2491 
Q 2509 2491 2742 2702 
Q 2975 2913 2975 3322 
Q 2975 3731 2742 3939 
Q 2509 4147 2053 4147 
L 1259 4147 
z
" transform="scale(0.015625)"/>
       <path id="DejaVuSans-75" d="M 544 1381 
L 544 3500 
L 1119 3500 
L 1119 1403 
Q 1119 906 1312 657 
Q 1506 409 1894 409 
Q 2359 409 2629 706 
Q 2900 1003 2900 1516 
L 2900 3500 
L 3475 3500 
L 3475 0 
L 2900 0 
L 2900 538 
Q 2691 219 2414 64 
Q 2138 -91 1772 -91 
Q 1169 -91 856 284 
Q 544 659 544 1381 
z
M 1991 3584 
L 1991 3584 
z
" transform="scale(0.015625)"/>
       <path id="DejaVuSans-6e" d="M 3513 2113 
L 3513 0 
L 2938 0 
L 2938 2094 
Q 2938 2591 2744 2837 
Q 2550 3084 2163 3084 
Q 1697 3084 1428 2787 
Q 1159 2491 1159 1978 
L 1159 0 
L 581 0 
L 581 3500 
L 1159 3500 
L 1159 2956 
Q 1366 3272 1645 3428 
Q 1925 3584 2291 3584 
Q 2894 3584 3203 3211 
Q 3513 2838 3513 2113 
z
" transform="scale(0.015625)"/>
       <path id="DejaVuSans-74" d="M 1172 4494 
L 1172 3500 
L 2356 3500 
L 2356 3053 
L 1172 3053 
L 1172 1153 
Q 1172 725 1289 603 
Q 1406 481 1766 481 
L 2356 481 
L 2356 0 
L 1766 0 
Q 1100 0 847 248 
Q 594 497 594 1153 
L 594 3053 
L 172 3053 
L 172 3500 
L 594 3500 
L 594 4494 
L 1172 4494 
z
" transform="scale(0.015625)"/>
       <path id="DejaVuSans-69" d="M 603 3500 
L 1178 3500 
L 1178 0 
L 603 0 
L 603 3500 
z
M 603 4863 
L 1178 4863 
L 1178 4134 
L 603 4134 
L 603 4863 
z
" transform="scale(0.015625)"/>
       <path id="DejaVuSans-6d" d="M 3328 2828 
Q 3544 3216 3844 3400 
Q 4144 3584 4550 3584 
Q 5097 3584 5394 3201 
Q 5691 2819 5691 2113 
L 5691 0 
L 5113 0 
L 5113 2094 
Q 5113 2597 4934 2840 
Q 4756 3084 4391 3084 
Q 3944 3084 3684 2787 
Q 3425 2491 3425 1978 
L 3425 0 
L 2847 0 
L 2847 2094 
Q 2847 2600 2669 2842 
Q 2491 3084 2119 3084 
Q 1678 3084 1418 2786 
Q 1159 2488 1159 1978 
L 1159 0 
L 581 0 
L 581 3500 
L 1159 3500 
L 1159 2956 
Q 1356 3278 1631 3431 
Q 1906 3584 2284 3584 
Q 2666 3584 2933 3390 
Q 3200 3197 3328 2828 
z
" transform="scale(0.015625)"/>
       <path id="DejaVuSans-65" d="M 3597 1894 
L 3597 1613 
L 953 1613 
Q 991 1019 1311 708 
Q 1631 397 2203 397 
Q 2534 397 2845 478 
Q 3156 559 3463 722 
L 3463 178 
Q 3153 47 2828 -22 
Q 2503 -91 2169 -91 
Q 1331 -91 842 396 
Q 353 884 353 1716 
Q 353 2575 817 3079 
Q 1281 3584 2069 3584 
Q 2775 3584 3186 3129 
Q 3597 2675 3597 1894 
z
M 3022 2063 
Q 3016 2534 2758 2815 
Q 2500 3097 2075 3097 
Q 1594 3097 1305 2825 
Q 1016 2553 972 2059 
L 3022 2063 
z
" transform="scale(0.015625)"/>
       <path id="DejaVuSans-20" transform="scale(0.015625)"/>
       <path id="DejaVuSans-72" d="M 2631 2963 
Q 2534 3019 2420 3045 
Q 2306 3072 2169 3072 
Q 1681 3072 1420 2755 
Q 1159 2438 1159 1844 
L 1159 0 
L 581 0 
L 581 3500 
L 1159 3500 
L 1159 2956 
Q 1341 3275 1631 3429 
Q 1922 3584 2338 3584 
Q 2397 3584 2469 3576 
Q 2541 3569 2628 3553 
L 2631 2963 
z
" transform="scale(0.015625)"/>
       <path id="DejaVuSans-67" d="M 2906 1791 
Q 2906 2416 2648 2759 
Q 2391 3103 1925 3103 
Q 1463 3103 1205 2759 
Q 947 2416 947 1791 
Q 947 1169 1205 825 
Q 1463 481 1925 481 
Q 2391 481 2648 825 
Q 2906 1169 2906 1791 
z
M 3481 434 
Q 3481 -459 3084 -895 
Q 2688 -1331 1869 -1331 
Q 1566 -1331 1297 -1286 
Q 1028 -1241 775 -1147 
L 775 -588 
Q 1028 -725 1275 -790 
Q 1522 -856 1778 -856 
Q 2344 -856 2625 -561 
Q 2906 -266 2906 331 
L 2906 616 
Q 2728 306 2450 153 
Q 2172 0 1784 0 
Q 1141 0 747 490 
Q 353 981 353 1791 
Q 353 2603 747 3093 
Q 1141 3584 1784 3584 
Q 2172 3584 2450 3431 
Q 2728 3278 2906 2969 
L 2906 3500 
L 3481 3500 
L 3481 434 
z
" transform="scale(0.015625)"/>
       <path id="DejaVuSans-73" d="M 2834 3397 
L 2834 2853 
Q 2591 2978 2328 3040 
Q 2066 3103 1784 3103 
Q 1356 3103 1142 2972 
Q 928 2841 928 2578 
Q 928 2378 1081 2264 
Q 1234 2150 1697 2047 
L 1894 2003 
Q 2506 1872 2764 1633 
Q 3022 1394 3022 966 
Q 3022 478 2636 193 
Q 2250 -91 1575 -91 
Q 1294 -91 989 -36 
Q 684 19 347 128 
L 347 722 
Q 666 556 975 473 
Q 1284 391 1588 391 
Q 1994 391 2212 530 
Q 2431 669 2431 922 
Q 2431 1156 2273 1281 
Q 2116 1406 1581 1522 
L 1381 1569 
Q 847 1681 609 1914 
Q 372 2147 372 2553 
Q 372 3047 722 3315 
Q 1072 3584 1716 3584 
Q 2034 3584 2315 3537 
Q 2597 3491 2834 3397 
z
" transform="scale(0.015625)"/>
       <path id="DejaVuSans-6f" d="M 1959 3097 
Q 1497 3097 1228 2736 
Q 959 2375 959 1747 
Q 959 1119 1226 758 
Q 1494 397 1959 397 
Q 2419 397 2687 759 
Q 2956 1122 2956 1747 
Q 2956 2369 2687 2733 
Q 2419 3097 1959 3097 
z
M 1959 3584 
Q 2709 3584 3137 3096 
Q 3566 2609 3566 1747 
Q 3566 888 3137 398 
Q 2709 -91 1959 -91 
Q 1206 -91 779 398 
Q 353 888 353 1747 
Q 353 2609 779 3096 
Q 1206 3584 1959 3584 
z
" transform="scale(0.015625)"/>
       <path id="DejaVuSans-6c" d="M 603 4863 
L 1178 4863 
L 1178 0 
L 603 0 
L 603 4863 
z
" transform="scale(0.015625)"/>
       <path id="DejaVuSans-61" d="M 2194 1759 
Q 1497 1759 1228 1600 
Q 959 1441 959 1056 
Q 959 750 1161 570 
Q 1363 391 1709 391 
Q 2188 391 2477 730 
Q 2766 1069 2766 1631 
L 2766 1759 
L 2194 1759 
z
M 3341 1997 
L 3341 0 
L 2766 0 
L 2766 531 
Q 2569 213 2275 61 
Q 1981 -91 1556 -91 
Q 1019 -91 701 211 
Q 384 513 384 1019 
Q 384 1609 779 1909 
Q 1175 2209 1959 2209 
L 2766 2209 
L 2766 2266 
Q 2766 2663 2505 2880 
Q 2244 3097 1772 3097 
Q 1472 3097 1187 3025 
Q 903 2953 641 2809 
L 641 3341 
Q 956 3463 1253 3523 
Q 1550 3584 1831 3584 
Q 2591 3584 2966 3190 
Q 3341 2797 3341 1997 
z
" transform="scale(0.015625)"/>
       <path id="DejaVuSans-76" d="M 191 3500 
L 800 3500 
L 1894 563 
L 2988 3500 
L 3597 3500 
L 2284 0 
L 1503 0 
L 191 3500 
z
" transform="scale(0.015625)"/>
       <path id="DejaVuSans-42" d="M 1259 2228 
L 1259 519 
L 2272 519 
Q 2781 519 3026 730 
Q 3272 941 3272 1375 
Q 3272 1813 3026 2020 
Q 2781 2228 2272 2228 
L 1259 2228 
z
M 1259 4147 
L 1259 2741 
L 2194 2741 
Q 2656 2741 2882 2914 
Q 3109 3088 3109 3444 
Q 3109 3797 2882 3972 
Q 2656 4147 2194 4147 
L 1259 4147 
z
M 628 4666 
L 2241 4666 
Q 2963 4666 3353 4366 
Q 3744 4066 3744 3513 
Q 3744 3084 3544 2831 
Q 3344 2578 2956 2516 
Q 3422 2416 3680 2098 
Q 3938 1781 3938 1306 
Q 3938 681 3513 340 
Q 3088 0 2303 0 
L 628 0 
L 628 4666 
z
" transform="scale(0.015625)"/>
       <path id="DejaVuSans-28" d="M 1984 4856 
Q 1566 4138 1362 3434 
Q 1159 2731 1159 2009 
Q 1159 1288 1364 580 
Q 1569 -128 1984 -844 
L 1484 -844 
Q 1016 -109 783 600 
Q 550 1309 550 2009 
Q 550 2706 781 3412 
Q 1013 4119 1484 4856 
L 1984 4856 
z
" transform="scale(0.015625)"/>
       <path id="DejaVuSans-25" d="M 4653 2053 
Q 4381 2053 4226 1822 
Q 4072 1591 4072 1178 
Q 4072 772 4226 539 
Q 4381 306 4653 306 
Q 4919 306 5073 539 
Q 5228 772 5228 1178 
Q 5228 1588 5073 1820 
Q 4919 2053 4653 2053 
z
M 4653 2450 
Q 5147 2450 5437 2106 
Q 5728 1763 5728 1178 
Q 5728 594 5436 251 
Q 5144 -91 4653 -91 
Q 4153 -91 3862 251 
Q 3572 594 3572 1178 
Q 3572 1766 3864 2108 
Q 4156 2450 4653 2450 
z
M 1428 4353 
Q 1159 4353 1004 4120 
Q 850 3888 850 3481 
Q 850 3069 1003 2837 
Q 1156 2606 1428 2606 
Q 1700 2606 1854 2837 
Q 2009 3069 2009 3481 
Q 2009 3884 1853 4118 
Q 1697 4353 1428 4353 
z
M 4250 4750 
L 4750 4750 
L 1831 -91 
L 1331 -91 
L 4250 4750 
z
M 1428 4750 
Q 1922 4750 2215 4408 
Q 2509 4066 2509 3481 
Q 2509 2891 2217 2550 
Q 1925 2209 1428 2209 
Q 931 2209 642 2551 
Q 353 2894 353 3481 
Q 353 4063 643 4406 
Q 934 4750 1428 4750 
z
" transform="scale(0.015625)"/>
       <path id="DejaVuSans-29" d="M 513 4856 
L 1013 4856 
Q 1481 4119 1714 3412 
Q 1947 2706 1947 2009 
Q 1947 1309 1714 600 
Q 1481 -109 1013 -844 
L 513 -844 
Q 928 -128 1133 580 
Q 1338 1288 1338 2009 
Q 1338 2731 1133 3434 
Q 928 4138 513 4856 
z
" transform="scale(0.015625)"/>
      </defs>
      <use xlink:href="#DejaVuSans-52"/>
      <use xlink:href="#DejaVuSans-75" transform="translate(64.982422 0)"/>
      <use xlink:href="#DejaVuSans-6e" transform="translate(128.361328 0)"/>
      <use xlink:href="#DejaVuSans-74" transform="translate(191.740234 0)"/>
      <use xlink:href="#DejaVuSans-69" transform="translate(230.949219 0)"/>
      <use xlink:href="#DejaVuSans-6d" transform="translate(258.732422 0)"/>
      <use xlink:href="#DejaVuSans-65" transform="translate(356.144531 0)"/>
      <use xlink:href="#DejaVuSans-20" transform="translate(417.667969 0)"/>
      <use xlink:href="#DejaVuSans-72" transform="translate(449.455078 0)"/>
      <use xlink:href="#DejaVuSans-65" transform="translate(488.318359 0)"/>
      <use xlink:href="#DejaVuSans-67" transform="translate(549.841797 0)"/>
      <use xlink:href="#DejaVuSans-72" transform="translate(613.318359 0)"/>
      <use xlink:href="#DejaVuSans-65" transform="translate(652.181641 0)"/>
      <use xlink:href="#DejaVuSans-73" transform="translate(713.705078 0)"/>
      <use xlink:href="#DejaVuSans-73" transform="translate(765.804688 0)"/>
      <use xlink:href="#DejaVuSans-69" transform="translate(817.904297 0)"/>
      <use xlink:href="#DejaVuSans-6f" transform="translate(845.6875 0)"/>
      <use xlink:href="#DejaVuSans-6e" transform="translate(906.869141 0)"/>
      <use xlink:href="#DejaVuSans-20" transform="translate(970.248047 0)"/>
      <use xlink:href="#DejaVuSans-72" transform="translate(1002.035156 0)"/>
      <use xlink:href="#DejaVuSans-65" transform="translate(1040.898438 0)"/>
      <use xlink:href="#DejaVuSans-6c" transform="translate(1102.421875 0)"/>
      <use xlink:href="#DejaVuSans-61" transform="translate(1130.205078 0)"/>
      <use xlink:href="#DejaVuSans-74" transform="translate(1191.484375 0)"/>
      <use xlink:href="#DejaVuSans-69" transform="translate(1230.693359 0)"/>
      <use xlink:href="#DejaVuSans-76" transform="translate(1258.476562 0)"/>
      <use xlink:href="#DejaVuSans-65" transform="translate(1317.65625 0)"/>
      <use xlink:href="#DejaVuSans-20" transform="translate(1379.179688 0)"/>
      <use xlink:href="#DejaVuSans-74" transform="translate(1410.966797 0)"/>
      <use xlink:href="#DejaVuSans-6f" transform="translate(1450.175781 0)"/>
      <use xlink:href="#DejaVuSans-20" transform="translate(1511.357422 0)"/>
      <use xlink:href="#DejaVuSans-42" transform="translate(1543.144531 0)"/>
      <use xlink:href="#DejaVuSans-61" transform="translate(1611.748047 0)"/>
      <use xlink:href="#DejaVuSans-73" transform="translate(1673.027344 0)"/>
      <use xlink:href="#DejaVuSans-65" transform="translate(1725.126953 0)"/>
      <use xlink:href="#DejaVuSans-6c" transform="translate(1786.650391 0)"/>
      <use xlink:href="#DejaVuSans-69" transform="translate(1814.433594 0)"/>
      <use xlink:href="#DejaVuSans-6e" transform="translate(1842.216797 0)"/>
      <use xlink:href="#DejaVuSans-65" transform="translate(1905.595703 0)"/>
      <use xlink:href="#DejaVuSans-20" transform="translate(1967.119141 0)"/>
      <use xlink:href="#DejaVuSans-28" transform="translate(1998.90625 0)"/>
      <use xlink:href="#DejaVuSans-25" transform="translate(2037.919922 0)"/>
      <use xlink:href="#DejaVuSans-29" transform="translate(2132.939453 0)"/>
     </g>
    </g>
   </g>
   <g id="matplotlib.axis_2">
    <g id="ytick_1">
     <g id="line2d_27">
      <defs>
       <path id="m4d917d9fce" d="M 0 0 
L -3.5 0 
" style="stroke: #000000; stroke-width: 0.8"/>
      </defs>
      <g>
       <use xlink:href="#m4d917d9fce" x="86.4" y="627.481773" style="stroke: #000000; stroke-width: 0.8"/>
      </g>
     </g>
     <g id="text_9">
      <!-- z3 -->
      <g style="fill: #24292f" transform="translate(68.751193 638.24402) rotate(-45) scale(0.11 -0.11)">
       <defs>
        <path id="DejaVuSans-7a" d="M 353 3500 
L 3084 3500 
L 3084 2975 
L 922 459 
L 3084 459 
L 3084 0 
L 275 0 
L 275 525 
L 2438 3041 
L 353 3041 
L 353 3500 
z
" transform="scale(0.015625)"/>
        <path id="DejaVuSans-33" d="M 2597 2516 
Q 3050 2419 3304 2112 
Q 3559 1806 3559 1356 
Q 3559 666 3084 287 
Q 2609 -91 1734 -91 
Q 1441 -91 1130 -33 
Q 819 25 488 141 
L 488 750 
Q 750 597 1062 519 
Q 1375 441 1716 441 
Q 2309 441 2620 675 
Q 2931 909 2931 1356 
Q 2931 1769 2642 2001 
Q 2353 2234 1838 2234 
L 1294 2234 
L 1294 2753 
L 1863 2753 
Q 2328 2753 2575 2939 
Q 2822 3125 2822 3475 
Q 2822 3834 2567 4026 
Q 2313 4219 1838 4219 
Q 1578 4219 1281 4162 
Q 984 4106 628 3988 
L 628 4550 
Q 988 4650 1302 4700 
Q 1616 4750 1894 4750 
Q 2613 4750 3031 4423 
Q 3450 4097 3450 3541 
Q 3450 3153 3228 2886 
Q 3006 2619 2597 2516 
z
" transform="scale(0.015625)"/>
       </defs>
       <use xlink:href="#DejaVuSans-7a"/>
       <use xlink:href="#DejaVuSans-33" transform="translate(52.490234 0)"/>
      </g>
     </g>
    </g>
    <g id="ytick_2">
     <g id="line2d_28">
      <g>
       <use xlink:href="#m4d917d9fce" x="86.4" y="595.915271" style="stroke: #000000; stroke-width: 0.8"/>
      </g>
     </g>
     <g id="text_10">
      <!-- tjbench -->
      <g style="fill: #24292f" transform="translate(48.712671 626.71604) rotate(-45) scale(0.11 -0.11)">
       <defs>
        <path id="DejaVuSans-6a" d="M 603 3500 
L 1178 3500 
L 1178 -63 
Q 1178 -731 923 -1031 
Q 669 -1331 103 -1331 
L -116 -1331 
L -116 -844 
L 38 -844 
Q 366 -844 484 -692 
Q 603 -541 603 -63 
L 603 3500 
z
M 603 4863 
L 1178 4863 
L 1178 4134 
L 603 4134 
L 603 4863 
z
" transform="scale(0.015625)"/>
        <path id="DejaVuSans-62" d="M 3116 1747 
Q 3116 2381 2855 2742 
Q 2594 3103 2138 3103 
Q 1681 3103 1420 2742 
Q 1159 2381 1159 1747 
Q 1159 1113 1420 752 
Q 1681 391 2138 391 
Q 2594 391 2855 752 
Q 3116 1113 3116 1747 
z
M 1159 2969 
Q 1341 3281 1617 3432 
Q 1894 3584 2278 3584 
Q 2916 3584 3314 3078 
Q 3713 2572 3713 1747 
Q 3713 922 3314 415 
Q 2916 -91 2278 -91 
Q 1894 -91 1617 61 
Q 1341 213 1159 525 
L 1159 0 
L 581 0 
L 581 4863 
L 1159 4863 
L 1159 2969 
z
" transform="scale(0.015625)"/>
        <path id="DejaVuSans-63" d="M 3122 3366 
L 3122 2828 
Q 2878 2963 2633 3030 
Q 2388 3097 2138 3097 
Q 1578 3097 1268 2742 
Q 959 2388 959 1747 
Q 959 1106 1268 751 
Q 1578 397 2138 397 
Q 2388 397 2633 464 
Q 2878 531 3122 666 
L 3122 134 
Q 2881 22 2623 -34 
Q 2366 -91 2075 -91 
Q 1284 -91 818 406 
Q 353 903 353 1747 
Q 353 2603 823 3093 
Q 1294 3584 2113 3584 
Q 2378 3584 2631 3529 
Q 2884 3475 3122 3366 
z
" transform="scale(0.015625)"/>
        <path id="DejaVuSans-68" d="M 3513 2113 
L 3513 0 
L 2938 0 
L 2938 2094 
Q 2938 2591 2744 2837 
Q 2550 3084 2163 3084 
Q 1697 3084 1428 2787 
Q 1159 2491 1159 1978 
L 1159 0 
L 581 0 
L 581 4863 
L 1159 4863 
L 1159 2956 
Q 1366 3272 1645 3428 
Q 1925 3584 2291 3584 
Q 2894 3584 3203 3211 
Q 3513 2838 3513 2113 
z
" transform="scale(0.015625)"/>
       </defs>
       <use xlink:href="#DejaVuSans-74"/>
       <use xlink:href="#DejaVuSans-6a" transform="translate(39.208984 0)"/>
       <use xlink:href="#DejaVuSans-62" transform="translate(66.992188 0)"/>
       <use xlink:href="#DejaVuSans-65" transform="translate(130.46875 0)"/>
       <use xlink:href="#DejaVuSans-6e" transform="translate(191.992188 0)"/>
       <use xlink:href="#DejaVuSans-63" transform="translate(255.371094 0)"/>
       <use xlink:href="#DejaVuSans-68" transform="translate(310.351562 0)"/>
      </g>
     </g>
    </g>
    <g id="ytick_3">
     <g id="line2d_29">
      <g>
       <use xlink:href="#m4d917d9fce" x="86.4" y="564.348768" style="stroke: #000000; stroke-width: 0.8"/>
      </g>
     </g>
     <g id="text_11">
      <!-- stockfish -->
      <g style="fill: #24292f" transform="translate(43.260656 600.601552) rotate(-45) scale(0.11 -0.11)">
       <defs>
        <path id="DejaVuSans-6b" d="M 581 4863 
L 1159 4863 
L 1159 1991 
L 2875 3500 
L 3609 3500 
L 1753 1863 
L 3688 0 
L 2938 0 
L 1159 1709 
L 1159 0 
L 581 0 
L 581 4863 
z
" transform="scale(0.015625)"/>
        <path id="DejaVuSans-66" d="M 2375 4863 
L 2375 4384 
L 1825 4384 
Q 1516 4384 1395 4259 
Q 1275 4134 1275 3809 
L 1275 3500 
L 2222 3500 
L 2222 3053 
L 1275 3053 
L 1275 0 
L 697 0 
L 697 3053 
L 147 3053 
L 147 3500 
L 697 3500 
L 697 3744 
Q 697 4328 969 4595 
Q 1241 4863 1831 4863 
L 2375 4863 
z
" transform="scale(0.015625)"/>
       </defs>
       <use xlink:href="#DejaVuSans-73"/>
       <use xlink:href="#DejaVuSans-74" transform="translate(52.099609 0)"/>
       <use xlink:href="#DejaVuSans-6f" transform="translate(91.308594 0)"/>
       <use xlink:href="#DejaVuSans-63" transform="translate(152.490234 0)"/>
       <use xlink:href="#DejaVuSans-6b" transform="translate(207.470703 0)"/>
       <use xlink:href="#DejaVuSans-66" transform="translate(265.380859 0)"/>
       <use xlink:href="#DejaVuSans-69" transform="translate(300.585938 0)"/>
       <use xlink:href="#DejaVuSans-73" transform="translate(328.369141 0)"/>
       <use xlink:href="#DejaVuSans-68" transform="translate(380.46875 0)"/>
      </g>
     </g>
    </g>
    <g id="ytick_4">
     <g id="line2d_30">
      <g>
       <use xlink:href="#m4d917d9fce" x="86.4" y="532.782266" style="stroke: #000000; stroke-width: 0.8"/>
      </g>
     </g>
     <g id="text_12">
      <!-- sqlite-speedtest -->
      <g style="fill: #24292f" transform="translate(15.392915 596.90279) rotate(-45) scale(0.11 -0.11)">
       <defs>
        <path id="DejaVuSans-71" d="M 947 1747 
Q 947 1113 1208 752 
Q 1469 391 1925 391 
Q 2381 391 2643 752 
Q 2906 1113 2906 1747 
Q 2906 2381 2643 2742 
Q 2381 3103 1925 3103 
Q 1469 3103 1208 2742 
Q 947 2381 947 1747 
z
M 2906 525 
Q 2725 213 2448 61 
Q 2172 -91 1784 -91 
Q 1150 -91 751 415 
Q 353 922 353 1747 
Q 353 2572 751 3078 
Q 1150 3584 1784 3584 
Q 2172 3584 2448 3432 
Q 2725 3281 2906 2969 
L 2906 3500 
L 3481 3500 
L 3481 -1331 
L 2906 -1331 
L 2906 525 
z
" transform="scale(0.015625)"/>
        <path id="DejaVuSans-2d" d="M 313 2009 
L 1997 2009 
L 1997 1497 
L 313 1497 
L 313 2009 
z
" transform="scale(0.015625)"/>
        <path id="DejaVuSans-70" d="M 1159 525 
L 1159 -1331 
L 581 -1331 
L 581 3500 
L 1159 3500 
L 1159 2969 
Q 1341 3281 1617 3432 
Q 1894 3584 2278 3584 
Q 2916 3584 3314 3078 
Q 3713 2572 3713 1747 
Q 3713 922 3314 415 
Q 2916 -91 2278 -91 
Q 1894 -91 1617 61 
Q 1341 213 1159 525 
z
M 3116 1747 
Q 3116 2381 2855 2742 
Q 2594 3103 2138 3103 
Q 1681 3103 1420 2742 
Q 1159 2381 1159 1747 
Q 1159 1113 1420 752 
Q 1681 391 2138 391 
Q 2594 391 2855 752 
Q 3116 1113 3116 1747 
z
" transform="scale(0.015625)"/>
        <path id="DejaVuSans-64" d="M 2906 2969 
L 2906 4863 
L 3481 4863 
L 3481 0 
L 2906 0 
L 2906 525 
Q 2725 213 2448 61 
Q 2172 -91 1784 -91 
Q 1150 -91 751 415 
Q 353 922 353 1747 
Q 353 2572 751 3078 
Q 1150 3584 1784 3584 
Q 2172 3584 2448 3432 
Q 2725 3281 2906 2969 
z
M 947 1747 
Q 947 1113 1208 752 
Q 1469 391 1925 391 
Q 2381 391 2643 752 
Q 2906 1113 2906 1747 
Q 2906 2381 2643 2742 
Q 2381 3103 1925 3103 
Q 1469 3103 1208 2742 
Q 947 2381 947 1747 
z
" transform="scale(0.015625)"/>
       </defs>
       <use xlink:href="#DejaVuSans-73"/>
       <use xlink:href="#DejaVuSans-71" transform="translate(52.099609 0)"/>
       <use xlink:href="#DejaVuSans-6c" transform="translate(115.576172 0)"/>
       <use xlink:href="#DejaVuSans-69" transform="translate(143.359375 0)"/>
       <use xlink:href="#DejaVuSans-74" transform="translate(171.142578 0)"/>
       <use xlink:href="#DejaVuSans-65" transform="translate(210.351562 0)"/>
       <use xlink:href="#DejaVuSans-2d" transform="translate(271.875 0)"/>
       <use xlink:href="#DejaVuSans-73" transform="translate(307.958984 0)"/>
       <use xlink:href="#DejaVuSans-70" transform="translate(360.058594 0)"/>
       <use xlink:href="#DejaVuSans-65" transform="translate(423.535156 0)"/>
       <use xlink:href="#DejaVuSans-65" transform="translate(485.058594 0)"/>
       <use xlink:href="#DejaVuSans-64" transform="translate(546.582031 0)"/>
       <use xlink:href="#DejaVuSans-74" transform="translate(610.058594 0)"/>
       <use xlink:href="#DejaVuSans-65" transform="translate(649.267578 0)"/>
       <use xlink:href="#DejaVuSans-73" transform="translate(710.791016 0)"/>
       <use xlink:href="#DejaVuSans-74" transform="translate(762.890625 0)"/>
      </g>
     </g>
    </g>
    <g id="ytick_5">
     <g id="line2d_31">
      <g>
       <use xlink:href="#m4d917d9fce" x="86.4" y="501.215764" style="stroke: #000000; stroke-width: 0.8"/>
      </g>
     </g>
     <g id="text_13">
      <!-- scimark2 -->
      <g style="fill: #24292f" transform="translate(42.299323 538.42988) rotate(-45) scale(0.11 -0.11)">
       <defs>
        <path id="DejaVuSans-32" d="M 1228 531 
L 3431 531 
L 3431 0 
L 469 0 
L 469 531 
Q 828 903 1448 1529 
Q 2069 2156 2228 2338 
Q 2531 2678 2651 2914 
Q 2772 3150 2772 3378 
Q 2772 3750 2511 3984 
Q 2250 4219 1831 4219 
Q 1534 4219 1204 4116 
Q 875 4013 500 3803 
L 500 4441 
Q 881 4594 1212 4672 
Q 1544 4750 1819 4750 
Q 2544 4750 2975 4387 
Q 3406 4025 3406 3419 
Q 3406 3131 3298 2873 
Q 3191 2616 2906 2266 
Q 2828 2175 2409 1742 
Q 1991 1309 1228 531 
z
" transform="scale(0.015625)"/>
       </defs>
       <use xlink:href="#DejaVuSans-73"/>
       <use xlink:href="#DejaVuSans-63" transform="translate(52.099609 0)"/>
       <use xlink:href="#DejaVuSans-69" transform="translate(107.080078 0)"/>
       <use xlink:href="#DejaVuSans-6d" transform="translate(134.863281 0)"/>
       <use xlink:href="#DejaVuSans-61" transform="translate(232.275391 0)"/>
       <use xlink:href="#DejaVuSans-72" transform="translate(293.554688 0)"/>
       <use xlink:href="#DejaVuSans-6b" transform="translate(334.667969 0)"/>
       <use xlink:href="#DejaVuSans-32" transform="translate(392.578125 0)"/>
      </g>
     </g>
    </g>
    <g id="ytick_6">
     <g id="line2d_32">
      <g>
       <use xlink:href="#m4d917d9fce" x="86.4" y="469.649261" style="stroke: #000000; stroke-width: 0.8"/>
      </g>
     </g>
     <g id="text_14">
      <!-- rnnoise -->
      <g style="fill: #24292f" transform="translate(49.10401 500.058691) rotate(-45) scale(0.11 -0.11)">
       <use xlink:href="#DejaVuSans-72"/>
       <use xlink:href="#DejaVuSans-6e" transform="translate(39.363281 0)"/>
       <use xlink:href="#DejaVuSans-6e" transform="translate(102.742188 0)"/>
       <use xlink:href="#DejaVuSans-6f" transform="translate(166.121094 0)"/>
       <use xlink:href="#DejaVuSans-69" transform="translate(227.302734 0)"/>
       <use xlink:href="#DejaVuSans-73" transform="translate(255.085938 0)"/>
       <use xlink:href="#DejaVuSans-65" transform="translate(307.185547 0)"/>
      </g>
     </g>
    </g>
    <g id="ytick_7">
     <g id="line2d_33">
      <g>
       <use xlink:href="#m4d917d9fce" x="86.4" y="438.082759" style="stroke: #000000; stroke-width: 0.8"/>
      </g>
     </g>
     <g id="text_15">
      <!-- redis -->
      <g style="fill: #24292f" transform="translate(58.823082 458.773116) rotate(-45) scale(0.11 -0.11)">
       <use xlink:href="#DejaVuSans-72"/>
       <use xlink:href="#DejaVuSans-65" transform="translate(38.863281 0)"/>
       <use xlink:href="#DejaVuSans-64" transform="translate(100.386719 0)"/>
       <use xlink:href="#DejaVuSans-69" transform="translate(163.863281 0)"/>
       <use xlink:href="#DejaVuSans-73" transform="translate(191.646484 0)"/>
      </g>
     </g>
    </g>
    <g id="ytick_8">
     <g id="line2d_34">
      <g>
       <use xlink:href="#m4d917d9fce" x="86.4" y="406.516256" style="stroke: #000000; stroke-width: 0.8"/>
      </g>
     </g>
     <g id="text_16">
      <!-- openssl -->
      <g style="fill: #24292f" transform="translate(48.105001 437.924695) rotate(-45) scale(0.11 -0.11)">
       <use xlink:href="#DejaVuSans-6f"/>
       <use xlink:href="#DejaVuSans-70" transform="translate(61.181641 0)"/>
       <use xlink:href="#DejaVuSans-65" transform="translate(124.658203 0)"/>
       <use xlink:href="#DejaVuSans-6e" transform="translate(186.181641 0)"/>
       <use xlink:href="#DejaVuSans-73" transform="translate(249.560547 0)"/>
       <use xlink:href="#DejaVuSans-73" transform="translate(301.660156 0)"/>
       <use xlink:href="#DejaVuSans-6c" transform="translate(353.759766 0)"/>
      </g>
     </g>
    </g>
    <g id="ytick_9">
     <g id="line2d_35">
      <g>
       <use xlink:href="#m4d917d9fce" x="86.4" y="374.949754" style="stroke: #000000; stroke-width: 0.8"/>
      </g>
     </g>
     <g id="text_17">
      <!-- ngspice -->
      <g style="fill: #24292f" transform="translate(47.701508 406.761685) rotate(-45) scale(0.11 -0.11)">
       <use xlink:href="#DejaVuSans-6e"/>
       <use xlink:href="#DejaVuSans-67" transform="translate(63.378906 0)"/>
       <use xlink:href="#DejaVuSans-73" transform="translate(126.855469 0)"/>
       <use xlink:href="#DejaVuSans-70" transform="translate(178.955078 0)"/>
       <use xlink:href="#DejaVuSans-69" transform="translate(242.431641 0)"/>
       <use xlink:href="#DejaVuSans-63" transform="translate(270.214844 0)"/>
       <use xlink:href="#DejaVuSans-65" transform="translate(325.195312 0)"/>
      </g>
     </g>
    </g>
    <g id="ytick_10">
     <g id="line2d_36">
      <g>
       <use xlink:href="#m4d917d9fce" x="86.4" y="343.383251" style="stroke: #000000; stroke-width: 0.8"/>
      </g>
     </g>
     <g id="text_18">
      <!-- luajit -->
      <g style="fill: #24292f" transform="translate(58.554492 364.342199) rotate(-45) scale(0.11 -0.11)">
       <use xlink:href="#DejaVuSans-6c"/>
       <use xlink:href="#DejaVuSans-75" transform="translate(27.783203 0)"/>
       <use xlink:href="#DejaVuSans-61" transform="translate(91.162109 0)"/>
       <use xlink:href="#DejaVuSans-6a" transform="translate(152.441406 0)"/>
       <use xlink:href="#DejaVuSans-69" transform="translate(180.224609 0)"/>
       <use xlink:href="#DejaVuSans-74" transform="translate(208.007812 0)"/>
      </g>
     </g>
    </g>
    <g id="ytick_11">
     <g id="line2d_37">
      <g>
       <use xlink:href="#m4d917d9fce" x="86.4" y="311.816749" style="stroke: #000000; stroke-width: 0.8"/>
      </g>
     </g>
     <g id="text_19">
      <!-- graphics-magick -->
      <g style="fill: #24292f" transform="translate(13.494554 377.835634) rotate(-45) scale(0.11 -0.11)">
       <use xlink:href="#DejaVuSans-67"/>
       <use xlink:href="#DejaVuSans-72" transform="translate(63.476562 0)"/>
       <use xlink:href="#DejaVuSans-61" transform="translate(104.589844 0)"/>
       <use xlink:href="#DejaVuSans-70" transform="translate(165.869141 0)"/>
       <use xlink:href="#DejaVuSans-68" transform="translate(229.345703 0)"/>
       <use xlink:href="#DejaVuSans-69" transform="translate(292.724609 0)"/>
       <use xlink:href="#DejaVuSans-63" transform="translate(320.507812 0)"/>
       <use xlink:href="#DejaVuSans-73" transform="translate(375.488281 0)"/>
       <use xlink:href="#DejaVuSans-2d" transform="translate(427.587891 0)"/>
       <use xlink:href="#DejaVuSans-6d" transform="translate(463.671875 0)"/>
       <use xlink:href="#DejaVuSans-61" transform="translate(561.083984 0)"/>
       <use xlink:href="#DejaVuSans-67" transform="translate(622.363281 0)"/>
       <use xlink:href="#DejaVuSans-69" transform="translate(685.839844 0)"/>
       <use xlink:href="#DejaVuSans-63" transform="translate(713.623047 0)"/>
       <use xlink:href="#DejaVuSans-6b" transform="translate(768.603516 0)"/>
      </g>
     </g>
    </g>
    <g id="ytick_12">
     <g id="line2d_38">
      <g>
       <use xlink:href="#m4d917d9fce" x="86.4" y="280.250246" style="stroke: #000000; stroke-width: 0.8"/>
      </g>
     </g>
     <g id="text_20">
      <!-- fftw -->
      <g style="fill: #24292f" transform="translate(63.031804 296.731882) rotate(-45) scale(0.11 -0.11)">
       <defs>
        <path id="DejaVuSans-77" d="M 269 3500 
L 844 3500 
L 1563 769 
L 2278 3500 
L 2956 3500 
L 3675 769 
L 4391 3500 
L 4966 3500 
L 4050 0 
L 3372 0 
L 2619 2869 
L 1863 0 
L 1184 0 
L 269 3500 
z
" transform="scale(0.015625)"/>
       </defs>
       <use xlink:href="#DejaVuSans-66"/>
       <use xlink:href="#DejaVuSans-66" transform="translate(35.205078 0)"/>
       <use xlink:href="#DejaVuSans-74" transform="translate(68.660156 0)"/>
       <use xlink:href="#DejaVuSans-77" transform="translate(107.869141 0)"/>
      </g>
     </g>
    </g>
    <g id="ytick_13">
     <g id="line2d_39">
      <g>
       <use xlink:href="#m4d917d9fce" x="86.4" y="248.683744" style="stroke: #000000; stroke-width: 0.8"/>
      </g>
     </g>
     <g id="text_21">
      <!-- ffmpeg -->
      <g style="fill: #24292f" transform="translate(50.067774 278.129409) rotate(-45) scale(0.11 -0.11)">
       <use xlink:href="#DejaVuSans-66"/>
       <use xlink:href="#DejaVuSans-66" transform="translate(35.205078 0)"/>
       <use xlink:href="#DejaVuSans-6d" transform="translate(70.410156 0)"/>
       <use xlink:href="#DejaVuSans-70" transform="translate(167.822266 0)"/>
       <use xlink:href="#DejaVuSans-65" transform="translate(231.298828 0)"/>
       <use xlink:href="#DejaVuSans-67" transform="translate(292.822266 0)"/>
      </g>
     </g>
    </g>
    <g id="ytick_14">
     <g id="line2d_40">
      <g>
       <use xlink:href="#m4d917d9fce" x="86.4" y="217.117241" style="stroke: #000000; stroke-width: 0.8"/>
      </g>
     </g>
     <g id="text_22">
      <!-- espeak -->
      <g style="fill: #24292f" transform="translate(49.949886 246.680794) rotate(-45) scale(0.11 -0.11)">
       <use xlink:href="#DejaVuSans-65"/>
       <use xlink:href="#DejaVuSans-73" transform="translate(61.523438 0)"/>
       <use xlink:href="#DejaVuSans-70" transform="translate(113.623047 0)"/>
       <use xlink:href="#DejaVuSans-65" transform="translate(177.099609 0)"/>
       <use xlink:href="#DejaVuSans-61" transform="translate(238.623047 0)"/>
       <use xlink:href="#DejaVuSans-6b" transform="translate(299.902344 0)"/>
      </g>
     </g>
    </g>
    <g id="ytick_15">
     <g id="line2d_41">
      <g>
       <use xlink:href="#m4d917d9fce" x="86.4" y="185.550739" style="stroke: #000000; stroke-width: 0.8"/>
      </g>
     </g>
     <g id="text_23">
      <!-- draco -->
      <g style="fill: #24292f" transform="translate(55.844284 209.219894) rotate(-45) scale(0.11 -0.11)">
       <use xlink:href="#DejaVuSans-64"/>
       <use xlink:href="#DejaVuSans-72" transform="translate(63.476562 0)"/>
       <use xlink:href="#DejaVuSans-61" transform="translate(104.589844 0)"/>
       <use xlink:href="#DejaVuSans-63" transform="translate(165.869141 0)"/>
       <use xlink:href="#DejaVuSans-6f" transform="translate(220.849609 0)"/>
      </g>
     </g>
    </g>
    <g id="ytick_16">
     <g id="line2d_42">
      <g>
       <use xlink:href="#m4d917d9fce" x="86.4" y="153.984236" style="stroke: #000000; stroke-width: 0.8"/>
      </g>
     </g>
     <g id="text_24">
      <!-- compress-zstd -->
      <g style="fill: #24292f" transform="translate(21.391832 212.105844) rotate(-45) scale(0.11 -0.11)">
       <use xlink:href="#DejaVuSans-63"/>
       <use xlink:href="#DejaVuSans-6f" transform="translate(54.980469 0)"/>
       <use xlink:href="#DejaVuSans-6d" transform="translate(116.162109 0)"/>
       <use xlink:href="#DejaVuSans-70" transform="translate(213.574219 0)"/>
       <use xlink:href="#DejaVuSans-72" transform="translate(277.050781 0)"/>
       <use xlink:href="#DejaVuSans-65" transform="translate(315.914062 0)"/>
       <use xlink:href="#DejaVuSans-73" transform="translate(377.4375 0)"/>
       <use xlink:href="#DejaVuSans-73" transform="translate(429.537109 0)"/>
       <use xlink:href="#DejaVuSans-2d" transform="translate(481.636719 0)"/>
       <use xlink:href="#DejaVuSans-7a" transform="translate(517.720703 0)"/>
       <use xlink:href="#DejaVuSans-73" transform="translate(570.210938 0)"/>
       <use xlink:href="#DejaVuSans-74" transform="translate(622.310547 0)"/>
       <use xlink:href="#DejaVuSans-64" transform="translate(661.519531 0)"/>
      </g>
     </g>
    </g>
    <g id="ytick_17">
     <g id="line2d_43">
      <g>
       <use xlink:href="#m4d917d9fce" x="86.4" y="122.417734" style="stroke: #000000; stroke-width: 0.8"/>
      </g>
     </g>
     <g id="text_25">
      <!-- compress-pbzip2 -->
      <g style="fill: #24292f" transform="translate(11.507474 190.4237) rotate(-45) scale(0.11 -0.11)">
       <use xlink:href="#DejaVuSans-63"/>
       <use xlink:href="#DejaVuSans-6f" transform="translate(54.980469 0)"/>
       <use xlink:href="#DejaVuSans-6d" transform="translate(116.162109 0)"/>
       <use xlink:href="#DejaVuSans-70" transform="translate(213.574219 0)"/>
       <use xlink:href="#DejaVuSans-72" transform="translate(277.050781 0)"/>
       <use xlink:href="#DejaVuSans-65" transform="translate(315.914062 0)"/>
       <use xlink:href="#DejaVuSans-73" transform="translate(377.4375 0)"/>
       <use xlink:href="#DejaVuSans-73" transform="translate(429.537109 0)"/>
       <use xlink:href="#DejaVuSans-2d" transform="translate(481.636719 0)"/>
       <use xlink:href="#DejaVuSans-70" transform="translate(517.720703 0)"/>
       <use xlink:href="#DejaVuSans-62" transform="translate(581.197266 0)"/>
       <use xlink:href="#DejaVuSans-7a" transform="translate(644.673828 0)"/>
       <use xlink:href="#DejaVuSans-69" transform="translate(697.164062 0)"/>
       <use xlink:href="#DejaVuSans-70" transform="translate(724.947266 0)"/>
       <use xlink:href="#DejaVuSans-32" transform="translate(788.423828 0)"/>
      </g>
     </g>
    </g>
    <g id="ytick_18">
     <g id="line2d_44">
      <g>
       <use xlink:href="#m4d917d9fce" x="86.4" y="90.851232" style="stroke: #000000; stroke-width: 0.8"/>
      </g>
     </g>
     <g id="text_26">
      <!-- compress-7zip -->
      <g style="fill: #24292f" transform="translate(21.383325 148.981346) rotate(-45) scale(0.11 -0.11)">
       <defs>
        <path id="DejaVuSans-37" d="M 525 4666 
L 3525 4666 
L 3525 4397 
L 1831 0 
L 1172 0 
L 2766 4134 
L 525 4134 
L 525 4666 
z
" transform="scale(0.015625)"/>
       </defs>
       <use xlink:href="#DejaVuSans-63"/>
       <use xlink:href="#DejaVuSans-6f" transform="translate(54.980469 0)"/>
       <use xlink:href="#DejaVuSans-6d" transform="translate(116.162109 0)"/>
       <use xlink:href="#DejaVuSans-70" transform="translate(213.574219 0)"/>
       <use xlink:href="#DejaVuSans-72" transform="translate(277.050781 0)"/>
       <use xlink:href="#DejaVuSans-65" transform="translate(315.914062 0)"/>
       <use xlink:href="#DejaVuSans-73" transform="translate(377.4375 0)"/>
       <use xlink:href="#DejaVuSans-73" transform="translate(429.537109 0)"/>
       <use xlink:href="#DejaVuSans-2d" transform="translate(481.636719 0)"/>
       <use xlink:href="#DejaVuSans-37" transform="translate(517.720703 0)"/>
       <use xlink:href="#DejaVuSans-7a" transform="translate(581.34375 0)"/>
       <use xlink:href="#DejaVuSans-69" transform="translate(633.833984 0)"/>
       <use xlink:href="#DejaVuSans-70" transform="translate(661.617188 0)"/>
      </g>
     </g>
    </g>
    <g id="ytick_19">
     <g id="line2d_45">
      <g>
       <use xlink:href="#m4d917d9fce" x="86.4" y="59.284729" style="stroke: #000000; stroke-width: 0.8"/>
      </g>
     </g>
     <g id="text_27">
      <!-- botan -->
      <g style="fill: #24292f" transform="translate(55.339918 83.45825) rotate(-45) scale(0.11 -0.11)">
       <use xlink:href="#DejaVuSans-62"/>
       <use xlink:href="#DejaVuSans-6f" transform="translate(63.476562 0)"/>
       <use xlink:href="#DejaVuSans-74" transform="translate(124.658203 0)"/>
       <use xlink:href="#DejaVuSans-61" transform="translate(163.867188 0)"/>
       <use xlink:href="#DejaVuSans-6e" transform="translate(225.146484 0)"/>
      </g>
     </g>
    </g>
    <g id="ytick_20">
     <g id="line2d_46">
      <g>
       <use xlink:href="#m4d917d9fce" x="86.4" y="27.718227" style="stroke: #000000; stroke-width: 0.8"/>
      </g>
     </g>
     <g id="text_28">
      <!-- aircrack-ng -->
      <g style="fill: #24292f" transform="translate(34.137101 73.094566) rotate(-45) scale(0.11 -0.11)">
       <use xlink:href="#DejaVuSans-61"/>
       <use xlink:href="#DejaVuSans-69" transform="translate(61.279297 0)"/>
       <use xlink:href="#DejaVuSans-72" transform="translate(89.0625 0)"/>
       <use xlink:href="#DejaVuSans-63" transform="translate(127.925781 0)"/>
       <use xlink:href="#DejaVuSans-72" transform="translate(182.90625 0)"/>
       <use xlink:href="#DejaVuSans-61" transform="translate(224.019531 0)"/>
       <use xlink:href="#DejaVuSans-63" transform="translate(285.298828 0)"/>
       <use xlink:href="#DejaVuSans-6b" transform="translate(340.279297 0)"/>
       <use xlink:href="#DejaVuSans-2d" transform="translate(398.189453 0)"/>
       <use xlink:href="#DejaVuSans-6e" transform="translate(434.273438 0)"/>
       <use xlink:href="#DejaVuSans-67" transform="translate(497.652344 0)"/>
      </g>
     </g>
    </g>
   </g>
   <g id="line2d_47">
    <path d="M 325.44 648 
L 325.44 7.2 
" clip-path="url(#p2295e122f7)" style="fill: none; stroke-dasharray: 1,1.65; stroke-dashoffset: 0; stroke: #000000"/>
   </g>
   <g id="patch_23">
    <path d="M 86.4 648 
L 86.4 7.2 
" style="fill: none; stroke: #000000; stroke-width: 0.8; stroke-linejoin: miter; stroke-linecap: square"/>
   </g>
   <g id="patch_24">
    <path d="M 564.48 648 
L 564.48 7.2 
" style="fill: none; stroke: #000000; stroke-width: 0.8; stroke-linejoin: miter; stroke-linecap: square"/>
   </g>
   <g id="patch_25">
    <path d="M 86.4 648 
L 564.48 648 
" style="fill: none; stroke: #000000; stroke-width: 0.8; stroke-linejoin: miter; stroke-linecap: square"/>
   </g>
   <g id="patch_26">
    <path d="M 86.4 7.2 
L 564.48 7.2 
" style="fill: none; stroke: #000000; stroke-width: 0.8; stroke-linejoin: miter; stroke-linecap: square"/>
   </g>
   <g id="text_29">
    <!-- -0.18% -->
    <g style="fill: #28a745" transform="translate(248.134534 630.638424) scale(0.1 -0.1)">
     <defs>
      <path id="DejaVuSans-Bold-2d" d="M 347 2297 
L 2309 2297 
L 2309 1388 
L 347 1388 
L 347 2297 
z
" transform="scale(0.015625)"/>
      <path id="DejaVuSans-Bold-30" d="M 2944 2338 
Q 2944 3213 2780 3570 
Q 2616 3928 2228 3928 
Q 1841 3928 1675 3570 
Q 1509 3213 1509 2338 
Q 1509 1453 1675 1090 
Q 1841 728 2228 728 
Q 2613 728 2778 1090 
Q 2944 1453 2944 2338 
z
M 4147 2328 
Q 4147 1169 3647 539 
Q 3147 -91 2228 -91 
Q 1306 -91 806 539 
Q 306 1169 306 2328 
Q 306 3491 806 4120 
Q 1306 4750 2228 4750 
Q 3147 4750 3647 4120 
Q 4147 3491 4147 2328 
z
" transform="scale(0.015625)"/>
      <path id="DejaVuSans-Bold-2e" d="M 653 1209 
L 1778 1209 
L 1778 0 
L 653 0 
L 653 1209 
z
" transform="scale(0.015625)"/>
      <path id="DejaVuSans-Bold-31" d="M 750 831 
L 1813 831 
L 1813 3847 
L 722 3622 
L 722 4441 
L 1806 4666 
L 2950 4666 
L 2950 831 
L 4013 831 
L 4013 0 
L 750 0 
L 750 831 
z
" transform="scale(0.015625)"/>
      <path id="DejaVuSans-Bold-38" d="M 2228 2088 
Q 1891 2088 1709 1903 
Q 1528 1719 1528 1375 
Q 1528 1031 1709 848 
Q 1891 666 2228 666 
Q 2563 666 2741 848 
Q 2919 1031 2919 1375 
Q 2919 1722 2741 1905 
Q 2563 2088 2228 2088 
z
M 1350 2484 
Q 925 2613 709 2878 
Q 494 3144 494 3541 
Q 494 4131 934 4440 
Q 1375 4750 2228 4750 
Q 3075 4750 3515 4442 
Q 3956 4134 3956 3541 
Q 3956 3144 3739 2878 
Q 3522 2613 3097 2484 
Q 3572 2353 3814 2058 
Q 4056 1763 4056 1313 
Q 4056 619 3595 264 
Q 3134 -91 2228 -91 
Q 1319 -91 855 264 
Q 391 619 391 1313 
Q 391 1763 633 2058 
Q 875 2353 1350 2484 
z
M 1631 3419 
Q 1631 3141 1786 2991 
Q 1941 2841 2228 2841 
Q 2509 2841 2662 2991 
Q 2816 3141 2816 3419 
Q 2816 3697 2662 3845 
Q 2509 3994 2228 3994 
Q 1941 3994 1786 3844 
Q 1631 3694 1631 3419 
z
" transform="scale(0.015625)"/>
      <path id="DejaVuSans-Bold-25" d="M 4959 1925 
Q 4738 1925 4616 1733 
Q 4494 1541 4494 1184 
Q 4494 825 4614 633 
Q 4734 441 4959 441 
Q 5184 441 5303 633 
Q 5422 825 5422 1184 
Q 5422 1541 5301 1733 
Q 5181 1925 4959 1925 
z
M 4959 2450 
Q 5541 2450 5875 2112 
Q 6209 1775 6209 1184 
Q 6209 594 5875 251 
Q 5541 -91 4959 -91 
Q 4378 -91 4042 251 
Q 3706 594 3706 1184 
Q 3706 1772 4042 2111 
Q 4378 2450 4959 2450 
z
M 2094 -91 
L 1403 -91 
L 4319 4750 
L 5013 4750 
L 2094 -91 
z
M 1453 4750 
Q 2034 4750 2367 4411 
Q 2700 4072 2700 3481 
Q 2700 2891 2367 2550 
Q 2034 2209 1453 2209 
Q 872 2209 539 2550 
Q 206 2891 206 3481 
Q 206 4072 539 4411 
Q 872 4750 1453 4750 
z
M 1453 4225 
Q 1228 4225 1106 4031 
Q 984 3838 984 3481 
Q 984 3122 1106 2926 
Q 1228 2731 1453 2731 
Q 1678 2731 1798 2926 
Q 1919 3122 1919 3481 
Q 1919 3838 1797 4031 
Q 1675 4225 1453 4225 
z
" transform="scale(0.015625)"/>
     </defs>
     <use xlink:href="#DejaVuSans-Bold-2d"/>
     <use xlink:href="#DejaVuSans-Bold-30" transform="translate(41.503906 0)"/>
     <use xlink:href="#DejaVuSans-Bold-2e" transform="translate(111.083984 0)"/>
     <use xlink:href="#DejaVuSans-Bold-31" transform="translate(149.072266 0)"/>
     <use xlink:href="#DejaVuSans-Bold-38" transform="translate(218.652344 0)"/>
     <use xlink:href="#DejaVuSans-Bold-25" transform="translate(288.232422 0)"/>
    </g>
   </g>
   <g id="text_30">
    <!-- 0.45% -->
    <g style="fill: #cb2431" transform="translate(406.339832 599.071921) scale(0.1 -0.1)">
     <defs>
      <path id="DejaVuSans-Bold-34" d="M 2356 3675 
L 1038 1722 
L 2356 1722 
L 2356 3675 
z
M 2156 4666 
L 3494 4666 
L 3494 1722 
L 4159 1722 
L 4159 850 
L 3494 850 
L 3494 0 
L 2356 0 
L 2356 850 
L 288 850 
L 288 1881 
L 2156 4666 
z
" transform="scale(0.015625)"/>
      <path id="DejaVuSans-Bold-35" d="M 678 4666 
L 3669 4666 
L 3669 3781 
L 1638 3781 
L 1638 3059 
Q 1775 3097 1914 3117 
Q 2053 3138 2203 3138 
Q 3056 3138 3531 2711 
Q 4006 2284 4006 1522 
Q 4006 766 3489 337 
Q 2972 -91 2053 -91 
Q 1656 -91 1267 -14 
Q 878 63 494 219 
L 494 1166 
Q 875 947 1217 837 
Q 1559 728 1863 728 
Q 2300 728 2551 942 
Q 2803 1156 2803 1522 
Q 2803 1891 2551 2103 
Q 2300 2316 1863 2316 
Q 1603 2316 1309 2248 
Q 1016 2181 678 2041 
L 678 4666 
z
" transform="scale(0.015625)"/>
     </defs>
     <use xlink:href="#DejaVuSans-Bold-30"/>
     <use xlink:href="#DejaVuSans-Bold-2e" transform="translate(69.580078 0)"/>
     <use xlink:href="#DejaVuSans-Bold-34" transform="translate(107.568359 0)"/>
     <use xlink:href="#DejaVuSans-Bold-35" transform="translate(177.148438 0)"/>
     <use xlink:href="#DejaVuSans-Bold-25" transform="translate(246.728516 0)"/>
    </g>
   </g>
   <g id="text_31">
    <!-- -0.04% -->
    <g style="fill: #28a745" transform="translate(269.941047 567.505419) scale(0.1 -0.1)">
     <use xlink:href="#DejaVuSans-Bold-2d"/>
     <use xlink:href="#DejaVuSans-Bold-30" transform="translate(41.503906 0)"/>
     <use xlink:href="#DejaVuSans-Bold-2e" transform="translate(111.083984 0)"/>
     <use xlink:href="#DejaVuSans-Bold-30" transform="translate(149.072266 0)"/>
     <use xlink:href="#DejaVuSans-Bold-34" transform="translate(218.652344 0)"/>
     <use xlink:href="#DejaVuSans-Bold-25" transform="translate(288.232422 0)"/>
    </g>
   </g>
   <g id="text_32">
    <!-- 0.48% -->
    <g style="fill: #cb2431" transform="translate(411.443 535.938916) scale(0.1 -0.1)">
     <use xlink:href="#DejaVuSans-Bold-30"/>
     <use xlink:href="#DejaVuSans-Bold-2e" transform="translate(69.580078 0)"/>
     <use xlink:href="#DejaVuSans-Bold-34" transform="translate(107.568359 0)"/>
     <use xlink:href="#DejaVuSans-Bold-38" transform="translate(177.148438 0)"/>
     <use xlink:href="#DejaVuSans-Bold-25" transform="translate(246.728516 0)"/>
    </g>
   </g>
   <g id="text_33">
    <!-- -0.11% -->
    <g style="fill: #28a745" transform="translate(259.144219 504.372414) scale(0.1 -0.1)">
     <use xlink:href="#DejaVuSans-Bold-2d"/>
     <use xlink:href="#DejaVuSans-Bold-30" transform="translate(41.503906 0)"/>
     <use xlink:href="#DejaVuSans-Bold-2e" transform="translate(111.083984 0)"/>
     <use xlink:href="#DejaVuSans-Bold-31" transform="translate(149.072266 0)"/>
     <use xlink:href="#DejaVuSans-Bold-31" transform="translate(218.652344 0)"/>
     <use xlink:href="#DejaVuSans-Bold-25" transform="translate(288.232422 0)"/>
    </g>
   </g>
   <g id="text_34">
    <!-- 0.38% -->
    <g style="fill: #cb2431" transform="translate(394.870452 472.805911) scale(0.1 -0.1)">
     <defs>
      <path id="DejaVuSans-Bold-33" d="M 2981 2516 
Q 3453 2394 3698 2092 
Q 3944 1791 3944 1325 
Q 3944 631 3412 270 
Q 2881 -91 1863 -91 
Q 1503 -91 1142 -33 
Q 781 25 428 141 
L 428 1069 
Q 766 900 1098 814 
Q 1431 728 1753 728 
Q 2231 728 2486 893 
Q 2741 1059 2741 1369 
Q 2741 1688 2480 1852 
Q 2219 2016 1709 2016 
L 1228 2016 
L 1228 2791 
L 1734 2791 
Q 2188 2791 2409 2933 
Q 2631 3075 2631 3366 
Q 2631 3634 2415 3781 
Q 2200 3928 1806 3928 
Q 1516 3928 1219 3862 
Q 922 3797 628 3669 
L 628 4550 
Q 984 4650 1334 4700 
Q 1684 4750 2022 4750 
Q 2931 4750 3382 4451 
Q 3834 4153 3834 3553 
Q 3834 3144 3618 2883 
Q 3403 2622 2981 2516 
z
" transform="scale(0.015625)"/>
     </defs>
     <use xlink:href="#DejaVuSans-Bold-30"/>
     <use xlink:href="#DejaVuSans-Bold-2e" transform="translate(69.580078 0)"/>
     <use xlink:href="#DejaVuSans-Bold-33" transform="translate(107.568359 0)"/>
     <use xlink:href="#DejaVuSans-Bold-38" transform="translate(177.148438 0)"/>
     <use xlink:href="#DejaVuSans-Bold-25" transform="translate(246.728516 0)"/>
    </g>
   </g>
   <g id="text_35">
    <!-- -0.78% -->
    <g style="fill: #28a745" transform="translate(152.164406 441.239409) scale(0.1 -0.1)">
     <defs>
      <path id="DejaVuSans-Bold-37" d="M 428 4666 
L 3944 4666 
L 3944 3988 
L 2125 0 
L 953 0 
L 2675 3781 
L 428 3781 
L 428 4666 
z
" transform="scale(0.015625)"/>
     </defs>
     <use xlink:href="#DejaVuSans-Bold-2d"/>
     <use xlink:href="#DejaVuSans-Bold-30" transform="translate(41.503906 0)"/>
     <use xlink:href="#DejaVuSans-Bold-2e" transform="translate(111.083984 0)"/>
     <use xlink:href="#DejaVuSans-Bold-37" transform="translate(149.072266 0)"/>
     <use xlink:href="#DejaVuSans-Bold-38" transform="translate(218.652344 0)"/>
     <use xlink:href="#DejaVuSans-Bold-25" transform="translate(288.232422 0)"/>
    </g>
   </g>
   <g id="text_36">
    <!-- -0.12% -->
    <g style="fill: #28a745" transform="translate(257.469989 409.672906) scale(0.1 -0.1)">
     <defs>
      <path id="DejaVuSans-Bold-32" d="M 1844 884 
L 3897 884 
L 3897 0 
L 506 0 
L 506 884 
L 2209 2388 
Q 2438 2594 2547 2791 
Q 2656 2988 2656 3200 
Q 2656 3528 2436 3728 
Q 2216 3928 1850 3928 
Q 1569 3928 1234 3808 
Q 900 3688 519 3450 
L 519 4475 
Q 925 4609 1322 4679 
Q 1719 4750 2100 4750 
Q 2938 4750 3402 4381 
Q 3866 4013 3866 3353 
Q 3866 2972 3669 2642 
Q 3472 2313 2841 1759 
L 1844 884 
z
" transform="scale(0.015625)"/>
     </defs>
     <use xlink:href="#DejaVuSans-Bold-2d"/>
     <use xlink:href="#DejaVuSans-Bold-30" transform="translate(41.503906 0)"/>
     <use xlink:href="#DejaVuSans-Bold-2e" transform="translate(111.083984 0)"/>
     <use xlink:href="#DejaVuSans-Bold-31" transform="translate(149.072266 0)"/>
     <use xlink:href="#DejaVuSans-Bold-32" transform="translate(218.652344 0)"/>
     <use xlink:href="#DejaVuSans-Bold-25" transform="translate(288.232422 0)"/>
    </g>
   </g>
   <g id="text_37">
    <!-- 0.37% -->
    <g style="fill: #cb2431" transform="translate(393.351592 378.106404) scale(0.1 -0.1)">
     <use xlink:href="#DejaVuSans-Bold-30"/>
     <use xlink:href="#DejaVuSans-Bold-2e" transform="translate(69.580078 0)"/>
     <use xlink:href="#DejaVuSans-Bold-33" transform="translate(107.568359 0)"/>
     <use xlink:href="#DejaVuSans-Bold-37" transform="translate(177.148438 0)"/>
     <use xlink:href="#DejaVuSans-Bold-25" transform="translate(246.728516 0)"/>
    </g>
   </g>
   <g id="text_38">
    <!-- 0.08% -->
    <g style="fill: #cb2431" transform="translate(348.026313 346.539901) scale(0.1 -0.1)">
     <use xlink:href="#DejaVuSans-Bold-30"/>
     <use xlink:href="#DejaVuSans-Bold-2e" transform="translate(69.580078 0)"/>
     <use xlink:href="#DejaVuSans-Bold-30" transform="translate(107.568359 0)"/>
     <use xlink:href="#DejaVuSans-Bold-38" transform="translate(177.148438 0)"/>
     <use xlink:href="#DejaVuSans-Bold-25" transform="translate(246.728516 0)"/>
    </g>
   </g>
   <g id="text_39">
    <!-- 0.00% -->
    <g style="fill: #dbab09" transform="translate(281.186213 314.973399) scale(0.1 -0.1)">
     <use xlink:href="#DejaVuSans-Bold-30"/>
     <use xlink:href="#DejaVuSans-Bold-2e" transform="translate(69.580078 0)"/>
     <use xlink:href="#DejaVuSans-Bold-30" transform="translate(107.568359 0)"/>
     <use xlink:href="#DejaVuSans-Bold-30" transform="translate(177.148438 0)"/>
     <use xlink:href="#DejaVuSans-Bold-25" transform="translate(246.728516 0)"/>
    </g>
   </g>
   <g id="text_40">
    <!-- -0.88% -->
    <g style="fill: #28a745" transform="translate(136.885107 283.406897) scale(0.1 -0.1)">
     <use xlink:href="#DejaVuSans-Bold-2d"/>
     <use xlink:href="#DejaVuSans-Bold-30" transform="translate(41.503906 0)"/>
     <use xlink:href="#DejaVuSans-Bold-2e" transform="translate(111.083984 0)"/>
     <use xlink:href="#DejaVuSans-Bold-38" transform="translate(149.072266 0)"/>
     <use xlink:href="#DejaVuSans-Bold-38" transform="translate(218.652344 0)"/>
     <use xlink:href="#DejaVuSans-Bold-25" transform="translate(288.232422 0)"/>
    </g>
   </g>
   <g id="text_41">
    <!-- 0.73% -->
    <g style="fill: #cb2431" transform="translate(452.002201 251.840394) scale(0.1 -0.1)">
     <use xlink:href="#DejaVuSans-Bold-30"/>
     <use xlink:href="#DejaVuSans-Bold-2e" transform="translate(69.580078 0)"/>
     <use xlink:href="#DejaVuSans-Bold-37" transform="translate(107.568359 0)"/>
     <use xlink:href="#DejaVuSans-Bold-33" transform="translate(177.148438 0)"/>
     <use xlink:href="#DejaVuSans-Bold-25" transform="translate(246.728516 0)"/>
    </g>
   </g>
   <g id="text_42">
    <!-- 0.15% -->
    <g style="fill: #cb2431" transform="translate(359.181577 220.273892) scale(0.1 -0.1)">
     <use xlink:href="#DejaVuSans-Bold-30"/>
     <use xlink:href="#DejaVuSans-Bold-2e" transform="translate(69.580078 0)"/>
     <use xlink:href="#DejaVuSans-Bold-31" transform="translate(107.568359 0)"/>
     <use xlink:href="#DejaVuSans-Bold-35" transform="translate(177.148438 0)"/>
     <use xlink:href="#DejaVuSans-Bold-25" transform="translate(246.728516 0)"/>
    </g>
   </g>
   <g id="text_43">
    <!-- -0.32% -->
    <g style="fill: #28a745" transform="translate(225.569389 188.707389) scale(0.1 -0.1)">
     <use xlink:href="#DejaVuSans-Bold-2d"/>
     <use xlink:href="#DejaVuSans-Bold-30" transform="translate(41.503906 0)"/>
     <use xlink:href="#DejaVuSans-Bold-2e" transform="translate(111.083984 0)"/>
     <use xlink:href="#DejaVuSans-Bold-33" transform="translate(149.072266 0)"/>
     <use xlink:href="#DejaVuSans-Bold-32" transform="translate(218.652344 0)"/>
     <use xlink:href="#DejaVuSans-Bold-25" transform="translate(288.232422 0)"/>
    </g>
   </g>
   <g id="text_44">
    <!-- -0.20% -->
    <g style="fill: #28a745" transform="translate(244.623331 157.140887) scale(0.1 -0.1)">
     <use xlink:href="#DejaVuSans-Bold-2d"/>
     <use xlink:href="#DejaVuSans-Bold-30" transform="translate(41.503906 0)"/>
     <use xlink:href="#DejaVuSans-Bold-2e" transform="translate(111.083984 0)"/>
     <use xlink:href="#DejaVuSans-Bold-32" transform="translate(149.072266 0)"/>
     <use xlink:href="#DejaVuSans-Bold-30" transform="translate(218.652344 0)"/>
     <use xlink:href="#DejaVuSans-Bold-25" transform="translate(288.232422 0)"/>
    </g>
   </g>
   <g id="text_45">
    <!-- -0.83% -->
    <g style="fill: #28a745" transform="translate(144.33265 125.574384) scale(0.1 -0.1)">
     <use xlink:href="#DejaVuSans-Bold-2d"/>
     <use xlink:href="#DejaVuSans-Bold-30" transform="translate(41.503906 0)"/>
     <use xlink:href="#DejaVuSans-Bold-2e" transform="translate(111.083984 0)"/>
     <use xlink:href="#DejaVuSans-Bold-38" transform="translate(149.072266 0)"/>
     <use xlink:href="#DejaVuSans-Bold-33" transform="translate(218.652344 0)"/>
     <use xlink:href="#DejaVuSans-Bold-25" transform="translate(288.232422 0)"/>
    </g>
   </g>
   <g id="text_46">
    <!-- 0.50% -->
    <g style="fill: #cb2431" transform="translate(414.671105 94.007882) scale(0.1 -0.1)">
     <use xlink:href="#DejaVuSans-Bold-30"/>
     <use xlink:href="#DejaVuSans-Bold-2e" transform="translate(69.580078 0)"/>
     <use xlink:href="#DejaVuSans-Bold-35" transform="translate(107.568359 0)"/>
     <use xlink:href="#DejaVuSans-Bold-30" transform="translate(177.148438 0)"/>
     <use xlink:href="#DejaVuSans-Bold-25" transform="translate(246.728516 0)"/>
    </g>
   </g>
   <g id="text_47">
    <!-- -0.27% -->
    <g style="fill: #28a745" transform="translate(234.53633 62.441379) scale(0.1 -0.1)">
     <use xlink:href="#DejaVuSans-Bold-2d"/>
     <use xlink:href="#DejaVuSans-Bold-30" transform="translate(41.503906 0)"/>
     <use xlink:href="#DejaVuSans-Bold-2e" transform="translate(111.083984 0)"/>
     <use xlink:href="#DejaVuSans-Bold-32" transform="translate(149.072266 0)"/>
     <use xlink:href="#DejaVuSans-Bold-37" transform="translate(218.652344 0)"/>
     <use xlink:href="#DejaVuSans-Bold-25" transform="translate(288.232422 0)"/>
    </g>
   </g>
   <g id="text_48">
    <!-- 0.01% -->
    <g style="fill: #cb2431" transform="translate(337.328351 30.874877) scale(0.1 -0.1)">
     <use xlink:href="#DejaVuSans-Bold-30"/>
     <use xlink:href="#DejaVuSans-Bold-2e" transform="translate(69.580078 0)"/>
     <use xlink:href="#DejaVuSans-Bold-30" transform="translate(107.568359 0)"/>
     <use xlink:href="#DejaVuSans-Bold-31" transform="translate(177.148438 0)"/>
     <use xlink:href="#DejaVuSans-Bold-25" transform="translate(246.728516 0)"/>
    </g>
   </g>
  </g>
 </g>
 <defs>
  <clipPath id="p2295e122f7">
   <rect x="86.4" y="7.2" width="478.08" height="640.8"/>
  </clipPath>
 </defs>
</svg>
